<mxfile host="app.diagrams.net" modified="2024-03-12T07:38:46.647Z" agent="Mozilla/5.0 (Macintosh; Intel Mac OS X 10_15_7) AppleWebKit/537.36 (KHTML, like Gecko) Chrome/122.0.0.0 Safari/537.36" etag="UPAnPMTLKWbevLyBnBYw" version="24.0.5" type="github">
  <diagram name="ページ1" id="RrzOMUl6WNT3pc_y_F5B">
    <mxGraphModel dx="1434" dy="786" grid="1" gridSize="10" guides="1" tooltips="1" connect="1" arrows="1" fold="1" page="1" pageScale="1" pageWidth="827" pageHeight="1169" math="0" shadow="0">
      <root>
        <mxCell id="0" />
        <mxCell id="1" parent="0" />
        <mxCell id="6pdO3K24EtppfaY8zK7V-4" value="users" style="shape=table;startSize=30;container=1;collapsible=0;childLayout=tableLayout;strokeColor=default;fontSize=16;" vertex="1" parent="1">
          <mxGeometry x="70" y="110" width="650" height="353" as="geometry" />
        </mxCell>
        <mxCell id="6pdO3K24EtppfaY8zK7V-5" value="" style="shape=tableRow;horizontal=0;startSize=0;swimlaneHead=0;swimlaneBody=0;strokeColor=inherit;top=0;left=0;bottom=0;right=0;collapsible=0;dropTarget=0;fillColor=none;points=[[0,0.5],[1,0.5]];portConstraint=eastwest;fontSize=16;" vertex="1" parent="6pdO3K24EtppfaY8zK7V-4">
          <mxGeometry y="30" width="650" height="50" as="geometry" />
        </mxCell>
        <mxCell id="6pdO3K24EtppfaY8zK7V-6" value="&lt;font style=&quot;vertical-align: inherit;&quot;&gt;&lt;font style=&quot;vertical-align: inherit;&quot;&gt;ユーザー名&lt;/font&gt;&lt;/font&gt;" style="shape=partialRectangle;html=1;whiteSpace=wrap;connectable=0;strokeColor=inherit;overflow=hidden;fillColor=none;top=0;left=0;bottom=0;right=0;pointerEvents=1;fontSize=16;" vertex="1" parent="6pdO3K24EtppfaY8zK7V-5">
          <mxGeometry width="183" height="50" as="geometry">
            <mxRectangle width="183" height="50" as="alternateBounds" />
          </mxGeometry>
        </mxCell>
        <mxCell id="6pdO3K24EtppfaY8zK7V-7" value="&lt;font style=&quot;vertical-align: inherit;&quot;&gt;&lt;font style=&quot;vertical-align: inherit;&quot;&gt;メールアドレス&lt;/font&gt;&lt;/font&gt;" style="shape=partialRectangle;html=1;whiteSpace=wrap;connectable=0;strokeColor=inherit;overflow=hidden;fillColor=none;top=0;left=0;bottom=0;right=0;pointerEvents=1;fontSize=16;" vertex="1" parent="6pdO3K24EtppfaY8zK7V-5">
          <mxGeometry x="183" width="247" height="50" as="geometry">
            <mxRectangle width="247" height="50" as="alternateBounds" />
          </mxGeometry>
        </mxCell>
        <mxCell id="6pdO3K24EtppfaY8zK7V-8" value="&lt;font style=&quot;vertical-align: inherit;&quot;&gt;&lt;font style=&quot;vertical-align: inherit;&quot;&gt;パスワード&lt;/font&gt;&lt;/font&gt;" style="shape=partialRectangle;html=1;whiteSpace=wrap;connectable=0;strokeColor=inherit;overflow=hidden;fillColor=none;top=0;left=0;bottom=0;right=0;pointerEvents=1;fontSize=16;" vertex="1" parent="6pdO3K24EtppfaY8zK7V-5">
          <mxGeometry x="430" width="220" height="50" as="geometry">
            <mxRectangle width="220" height="50" as="alternateBounds" />
          </mxGeometry>
        </mxCell>
        <mxCell id="6pdO3K24EtppfaY8zK7V-9" value="" style="shape=tableRow;horizontal=0;startSize=0;swimlaneHead=0;swimlaneBody=0;strokeColor=inherit;top=0;left=0;bottom=0;right=0;collapsible=0;dropTarget=0;fillColor=none;points=[[0,0.5],[1,0.5]];portConstraint=eastwest;fontSize=16;" vertex="1" parent="6pdO3K24EtppfaY8zK7V-4">
          <mxGeometry y="80" width="650" height="130" as="geometry" />
        </mxCell>
        <mxCell id="6pdO3K24EtppfaY8zK7V-10" value="" style="shape=partialRectangle;html=1;whiteSpace=wrap;connectable=0;strokeColor=inherit;overflow=hidden;fillColor=none;top=0;left=0;bottom=0;right=0;pointerEvents=1;fontSize=16;" vertex="1" parent="6pdO3K24EtppfaY8zK7V-9">
          <mxGeometry width="183" height="130" as="geometry">
            <mxRectangle width="183" height="130" as="alternateBounds" />
          </mxGeometry>
        </mxCell>
        <mxCell id="6pdO3K24EtppfaY8zK7V-11" value="" style="shape=partialRectangle;html=1;whiteSpace=wrap;connectable=0;strokeColor=inherit;overflow=hidden;fillColor=none;top=0;left=0;bottom=0;right=0;pointerEvents=1;fontSize=16;" vertex="1" parent="6pdO3K24EtppfaY8zK7V-9">
          <mxGeometry x="183" width="247" height="130" as="geometry">
            <mxRectangle width="247" height="130" as="alternateBounds" />
          </mxGeometry>
        </mxCell>
        <mxCell id="6pdO3K24EtppfaY8zK7V-12" value="" style="shape=partialRectangle;html=1;whiteSpace=wrap;connectable=0;strokeColor=inherit;overflow=hidden;fillColor=none;top=0;left=0;bottom=0;right=0;pointerEvents=1;fontSize=16;" vertex="1" parent="6pdO3K24EtppfaY8zK7V-9">
          <mxGeometry x="430" width="220" height="130" as="geometry">
            <mxRectangle width="220" height="130" as="alternateBounds" />
          </mxGeometry>
        </mxCell>
        <mxCell id="6pdO3K24EtppfaY8zK7V-13" value="" style="shape=tableRow;horizontal=0;startSize=0;swimlaneHead=0;swimlaneBody=0;strokeColor=inherit;top=0;left=0;bottom=0;right=0;collapsible=0;dropTarget=0;fillColor=none;points=[[0,0.5],[1,0.5]];portConstraint=eastwest;fontSize=16;" vertex="1" parent="6pdO3K24EtppfaY8zK7V-4">
          <mxGeometry y="210" width="650" height="143" as="geometry" />
        </mxCell>
        <mxCell id="6pdO3K24EtppfaY8zK7V-14" value="" style="shape=partialRectangle;html=1;whiteSpace=wrap;connectable=0;strokeColor=inherit;overflow=hidden;fillColor=none;top=0;left=0;bottom=0;right=0;pointerEvents=1;fontSize=16;" vertex="1" parent="6pdO3K24EtppfaY8zK7V-13">
          <mxGeometry width="183" height="143" as="geometry">
            <mxRectangle width="183" height="143" as="alternateBounds" />
          </mxGeometry>
        </mxCell>
        <mxCell id="6pdO3K24EtppfaY8zK7V-15" value="" style="shape=partialRectangle;html=1;whiteSpace=wrap;connectable=0;strokeColor=inherit;overflow=hidden;fillColor=none;top=0;left=0;bottom=0;right=0;pointerEvents=1;fontSize=16;" vertex="1" parent="6pdO3K24EtppfaY8zK7V-13">
          <mxGeometry x="183" width="247" height="143" as="geometry">
            <mxRectangle width="247" height="143" as="alternateBounds" />
          </mxGeometry>
        </mxCell>
        <mxCell id="6pdO3K24EtppfaY8zK7V-16" value="" style="shape=partialRectangle;html=1;whiteSpace=wrap;connectable=0;strokeColor=inherit;overflow=hidden;fillColor=none;top=0;left=0;bottom=0;right=0;pointerEvents=1;fontSize=16;" vertex="1" parent="6pdO3K24EtppfaY8zK7V-13">
          <mxGeometry x="430" width="220" height="143" as="geometry">
            <mxRectangle width="220" height="143" as="alternateBounds" />
          </mxGeometry>
        </mxCell>
        <mxCell id="6pdO3K24EtppfaY8zK7V-17" value="users" style="shape=table;startSize=60;container=1;collapsible=0;childLayout=tableLayout;fixedRows=1;rowLines=0;fontStyle=0;strokeColor=default;fontSize=16;" vertex="1" parent="1">
          <mxGeometry x="70" y="620" width="180" height="470" as="geometry" />
        </mxCell>
        <mxCell id="6pdO3K24EtppfaY8zK7V-18" value="" style="shape=tableRow;horizontal=0;startSize=0;swimlaneHead=0;swimlaneBody=0;top=0;left=0;bottom=0;right=0;collapsible=0;dropTarget=0;fillColor=none;points=[[0,0.5],[1,0.5]];portConstraint=eastwest;strokeColor=inherit;fontSize=16;movable=1;resizable=1;rotatable=1;deletable=1;editable=1;locked=0;connectable=1;" vertex="1" parent="6pdO3K24EtppfaY8zK7V-17">
          <mxGeometry y="60" width="180" height="50" as="geometry" />
        </mxCell>
        <mxCell id="6pdO3K24EtppfaY8zK7V-19" value="PK" style="shape=partialRectangle;html=1;whiteSpace=wrap;connectable=0;fillColor=none;top=0;left=0;bottom=0;right=0;overflow=hidden;pointerEvents=1;strokeColor=inherit;fontSize=16;" vertex="1" parent="6pdO3K24EtppfaY8zK7V-18">
          <mxGeometry width="40" height="50" as="geometry">
            <mxRectangle width="40" height="50" as="alternateBounds" />
          </mxGeometry>
        </mxCell>
        <mxCell id="6pdO3K24EtppfaY8zK7V-20" value="id" style="shape=partialRectangle;html=1;whiteSpace=wrap;connectable=0;fillColor=none;top=0;left=0;bottom=0;right=0;align=left;spacingLeft=6;overflow=hidden;strokeColor=inherit;fontSize=16;" vertex="1" parent="6pdO3K24EtppfaY8zK7V-18">
          <mxGeometry x="40" width="140" height="50" as="geometry">
            <mxRectangle width="140" height="50" as="alternateBounds" />
          </mxGeometry>
        </mxCell>
        <mxCell id="6pdO3K24EtppfaY8zK7V-21" value="" style="shape=tableRow;horizontal=0;startSize=0;swimlaneHead=0;swimlaneBody=0;top=0;left=0;bottom=0;right=0;collapsible=0;dropTarget=0;fillColor=none;points=[[0,0.5],[1,0.5]];portConstraint=eastwest;strokeColor=inherit;fontSize=16;" vertex="1" parent="6pdO3K24EtppfaY8zK7V-17">
          <mxGeometry y="110" width="180" height="240" as="geometry" />
        </mxCell>
        <mxCell id="6pdO3K24EtppfaY8zK7V-22" value="" style="shape=partialRectangle;html=1;whiteSpace=wrap;connectable=0;fillColor=none;top=0;left=0;bottom=0;right=0;overflow=hidden;strokeColor=inherit;fontSize=16;" vertex="1" parent="6pdO3K24EtppfaY8zK7V-21">
          <mxGeometry width="40" height="240" as="geometry">
            <mxRectangle width="40" height="240" as="alternateBounds" />
          </mxGeometry>
        </mxCell>
        <mxCell id="6pdO3K24EtppfaY8zK7V-23" value="name&lt;div&gt;email&lt;/div&gt;&lt;div&gt;introduction&lt;/div&gt;&lt;div&gt;profile_image&lt;/div&gt;&lt;div&gt;password_digest&lt;/div&gt;&lt;div&gt;create_at&lt;/div&gt;&lt;div&gt;update_at&lt;/div&gt;" style="shape=partialRectangle;html=1;whiteSpace=wrap;connectable=0;fillColor=none;top=0;left=0;bottom=0;right=0;align=left;spacingLeft=6;overflow=hidden;strokeColor=inherit;fontSize=16;" vertex="1" parent="6pdO3K24EtppfaY8zK7V-21">
          <mxGeometry x="40" width="140" height="240" as="geometry">
            <mxRectangle width="140" height="240" as="alternateBounds" />
          </mxGeometry>
        </mxCell>
        <mxCell id="6pdO3K24EtppfaY8zK7V-24" value="" style="shape=tableRow;horizontal=0;startSize=0;swimlaneHead=0;swimlaneBody=0;top=0;left=0;bottom=0;right=0;collapsible=0;dropTarget=0;fillColor=none;points=[[0,0.5],[1,0.5]];portConstraint=eastwest;strokeColor=inherit;fontSize=16;" vertex="1" parent="6pdO3K24EtppfaY8zK7V-17">
          <mxGeometry y="350" width="180" height="30" as="geometry" />
        </mxCell>
        <mxCell id="6pdO3K24EtppfaY8zK7V-25" value="3" style="shape=partialRectangle;html=1;whiteSpace=wrap;connectable=0;fillColor=none;top=0;left=0;bottom=0;right=0;overflow=hidden;strokeColor=inherit;fontSize=16;" vertex="1" parent="6pdO3K24EtppfaY8zK7V-24">
          <mxGeometry width="40" height="30" as="geometry">
            <mxRectangle width="40" height="30" as="alternateBounds" />
          </mxGeometry>
        </mxCell>
        <mxCell id="6pdO3K24EtppfaY8zK7V-26" value="Value 3" style="shape=partialRectangle;html=1;whiteSpace=wrap;connectable=0;fillColor=none;top=0;left=0;bottom=0;right=0;align=left;spacingLeft=6;overflow=hidden;strokeColor=inherit;fontSize=16;" vertex="1" parent="6pdO3K24EtppfaY8zK7V-24">
          <mxGeometry x="40" width="140" height="30" as="geometry">
            <mxRectangle width="140" height="30" as="alternateBounds" />
          </mxGeometry>
        </mxCell>
      </root>
    </mxGraphModel>
  </diagram>
</mxfile>
